<svg xmlns="http://www.w3.org/2000/svg" viewBox="0 0 600 380" fill="none" stroke="#8b6d35" stroke-width="2" stroke-linecap="round" stroke-linejoin="round">
  <g opacity=".82">
    <path d="M18 80V30Q18 18 30 18h58M18 55c18-2 33-14 38-32M27 62c16-2 28-12 33-28M45 43c-7-12-5-24 7-34M45 43c13 2 24-3 31-15M32 50c-9-3-15-10-18-20"/>
    <path d="M582 80V30q0-12-12-12h-58M582 55c-18-2-33-14-38-32M573 62c-16-2-28-12-33-28M555 43c7-12 5-24-7-34M555 43c-13 2-24-3-31-15M568 50c9-3 15-10 18-20"/>
    <path d="M18 300v50q0 12 12 12h58M18 325c18 2 33 14 38 32M27 318c16 2 28 12 33 28M45 337c-7 12-5 24 7 34M45 337c13-2 24 3 31 15M32 330c-9 3-15 10-18 20"/>
    <path d="M582 300v50q0 12-12 12h-58M582 325c-18 2-33 14-38 32M573 318c-16 2-28 12-33 28M555 337c7 12 5 24-7 34M555 337c-13-2-24 3-31 15M568 330c9 3 15 10 18 20"/>
    <path d="M226 350h62m24 0h62M288 350c8-14 16-14 24 0-8 14-16 14-24 0Z"/>
    <circle cx="300" cy="350" r="3" fill="#8b6d35" stroke="none"/>
  </g>
</svg>
