<svg xmlns="http://www.w3.org/2000/svg" viewBox="0 0 260 360" fill="none" stroke="#8b6d35" stroke-width="1.8" stroke-linecap="round" stroke-linejoin="round">
  <g opacity=".84">
    <path d="M12 68V22q0-10 10-10h44M12 46c15-2 27-11 31-27M22 52c12-2 22-10 26-22M37 37c-6-9-4-19 5-27M37 37c10 2 19-2 25-12"/>
    <path d="M248 68V22q0-10-10-10h-44M248 46c-15-2-27-11-31-27M238 52c-12-2-22-10-26-22M223 37c6-9 4-19-5-27M223 37c-10 2-19-2-25-12"/>
    <path d="M12 292v46q0 10 10 10h44M12 314c15 2 27 11 31 27M22 308c12 2 22 10 26 22M37 323c-6 9-4 19 5 27M37 323c10-2 19 2 25 12"/>
    <path d="M248 292v46q0 10-10 10h-44M248 314c-15 2-27 11-31 27M238 308c-12 2-22 10-26 22M223 323c6 9 4 19-5 27M223 323c-10-2-19 2-25 12"/>
    <path d="M88 338h30m24 0h30M118 338c8-12 16-12 24 0-8 12-16 12-24 0Z"/>
  </g>
</svg>
